<svg width="16" height="13" viewBox="0 0 16 13" fill="none" xmlns="http://www.w3.org/2000/svg">
<path fill-rule="evenodd" clip-rule="evenodd" d="M8.75391 0.375C8.93761 0.375024 9.11491 0.442467 9.25219 0.564536C9.38946 0.686606 9.47716 0.854812 9.49866 1.03725L9.50391 1.125C9.50412 1.31616 9.57732 1.50002 9.70854 1.63903C9.83977 1.77803 10.0191 1.86168 10.21 1.87288C10.4008 1.88408 10.5887 1.82199 10.7353 1.6993C10.8819 1.57661 10.9761 1.40257 10.9987 1.21275L11.0039 1.125C11.0039 0.926088 11.0829 0.735322 11.2236 0.59467C11.3642 0.454018 11.555 0.375 11.7539 0.375H13.2539C13.8506 0.375 14.4229 0.612053 14.8449 1.03401C15.2669 1.45597 15.5039 2.02826 15.5039 2.625V10.125C15.5039 10.7217 15.2669 11.294 14.8449 11.716C14.4229 12.1379 13.8506 12.375 13.2539 12.375H11.7539C11.5702 12.375 11.3929 12.3075 11.2556 12.1855C11.1184 12.0634 11.0306 11.8952 11.0092 11.7128L11.0039 11.625C11.0037 11.4338 10.9305 11.25 10.7993 11.111C10.668 10.972 10.4887 10.8883 10.2979 10.8771C10.107 10.8659 9.91912 10.928 9.77253 11.0507C9.62594 11.1734 9.53173 11.3474 9.50916 11.5372L9.50391 11.625C9.50391 11.8239 9.42489 12.0147 9.28424 12.1553C9.14358 12.296 8.95282 12.375 8.75391 12.375H2.75391C2.15717 12.375 1.58487 12.1379 1.16292 11.716C0.740959 11.294 0.503906 10.7217 0.503906 10.125V2.625C0.503906 2.02826 0.740959 1.45597 1.16292 1.03401C1.58487 0.612053 2.15717 0.375 2.75391 0.375H8.75391ZM10.2539 7.125C10.055 7.125 9.86423 7.20402 9.72358 7.34467C9.58292 7.48532 9.50391 7.67609 9.50391 7.875V8.625C9.50391 8.82391 9.58292 9.01468 9.72358 9.15533C9.86423 9.29598 10.055 9.375 10.2539 9.375C10.4528 9.375 10.6436 9.29598 10.7842 9.15533C10.9249 9.01468 11.0039 8.82391 11.0039 8.625V7.875C11.0039 7.67609 10.9249 7.48532 10.7842 7.34467C10.6436 7.20402 10.4528 7.125 10.2539 7.125ZM10.2539 3.375C10.0702 3.37502 9.8929 3.44247 9.75563 3.56454C9.61835 3.68661 9.53065 3.85481 9.50916 4.03725L9.50391 4.125V4.875C9.50412 5.06616 9.57732 5.25002 9.70854 5.38903C9.83977 5.52803 10.0191 5.61168 10.21 5.62288C10.4008 5.63408 10.5887 5.57199 10.7353 5.4493C10.8819 5.32661 10.9761 5.15257 10.9987 4.96275L11.0039 4.875V4.125C11.0039 3.92609 10.9249 3.73532 10.7842 3.59467C10.6436 3.45402 10.4528 3.375 10.2539 3.375Z" fill="#42A8FD"/>
</svg>
