<svg width="17" height="17" viewBox="0 0 17 17" fill="none" xmlns="http://www.w3.org/2000/svg">
<path d="M2.01424 1.375H14.992C15.2071 1.375 15.4134 1.46046 15.5656 1.61257C15.7177 1.76468 15.8031 1.97099 15.8031 2.18611V3.47253C15.8031 3.68764 15.7176 3.89391 15.5655 4.04599L10.363 9.24846C10.2109 9.40053 10.1254 9.60681 10.1253 9.82191V14.936C10.1253 15.0592 10.0972 15.1808 10.0432 15.2915C9.98914 15.4022 9.91059 15.4992 9.81349 15.575C9.71639 15.6508 9.60329 15.7035 9.48277 15.7291C9.36226 15.7548 9.23749 15.7526 9.11795 15.7227L7.49573 15.3172C7.32018 15.2734 7.1643 15.1722 7.0529 15.0296C6.94149 14.8871 6.88095 14.7113 6.8809 14.5304V9.82191C6.88086 9.60681 6.79537 9.40053 6.64325 9.24846L1.44078 4.04599C1.28866 3.89391 1.20317 3.68764 1.20312 3.47253V2.18611C1.20312 1.97099 1.28858 1.76468 1.44069 1.61257C1.59281 1.46046 1.79912 1.375 2.01424 1.375Z" fill="#868F9A" stroke="#868F9A" stroke-width="1.25" stroke-linecap="round" stroke-linejoin="round"/>
</svg>
