<svg width="15" height="16" viewBox="0 0 15 16" fill="none" xmlns="http://www.w3.org/2000/svg">
<path d="M0.833333 9.20833H5.83333C6.29167 9.20833 6.66667 8.83333 6.66667 8.375V1.70833C6.66667 1.25 6.29167 0.875 5.83333 0.875H0.833333C0.375 0.875 0 1.25 0 1.70833V8.375C0 8.83333 0.375 9.20833 0.833333 9.20833ZM0.833333 15.875H5.83333C6.29167 15.875 6.66667 15.5 6.66667 15.0417V11.7083C6.66667 11.25 6.29167 10.875 5.83333 10.875H0.833333C0.375 10.875 0 11.25 0 11.7083V15.0417C0 15.5 0.375 15.875 0.833333 15.875ZM9.16667 15.875H14.1667C14.625 15.875 15 15.5 15 15.0417V8.375C15 7.91667 14.625 7.54167 14.1667 7.54167H9.16667C8.70833 7.54167 8.33333 7.91667 8.33333 8.375V15.0417C8.33333 15.5 8.70833 15.875 9.16667 15.875ZM8.33333 1.70833V5.04167C8.33333 5.5 8.70833 5.875 9.16667 5.875H14.1667C14.625 5.875 15 5.5 15 5.04167V1.70833C15 1.25 14.625 0.875 14.1667 0.875H9.16667C8.70833 0.875 8.33333 1.25 8.33333 1.70833Z" fill="#42A8FD"/>
</svg>
