<svg width="15" height="15" viewBox="0 0 15 15" fill="none" xmlns="http://www.w3.org/2000/svg">
<path fill-rule="evenodd" clip-rule="evenodd" d="M0 5.70833C0 3.84167 9.93411e-08 2.90833 0.363333 2.195C0.682906 1.56782 1.19282 1.05791 1.82 0.738333C2.53333 0.375 3.46667 0.375 5.33333 0.375H9.66667C11.5333 0.375 12.4667 0.375 13.18 0.738333C13.8072 1.05791 14.3171 1.56782 14.6367 2.195C15 2.90833 15 3.84167 15 5.70833V6.70833C15 8.575 15 9.50833 14.6367 10.2217C14.3171 10.8488 13.8072 11.3588 13.18 11.6783C12.4667 12.0417 11.5333 12.0417 9.66667 12.0417H3.67833C3.45734 12.0417 3.24541 12.1295 3.08917 12.2858L1.4225 13.9525C0.8975 14.4775 0 14.1058 0 13.3633V5.70833ZM5 3.70833C4.77899 3.70833 4.56702 3.79613 4.41074 3.95241C4.25446 4.10869 4.16667 4.32065 4.16667 4.54167C4.16667 4.76268 4.25446 4.97464 4.41074 5.13092C4.56702 5.2872 4.77899 5.375 5 5.375H10C10.221 5.375 10.433 5.2872 10.5893 5.13092C10.7455 4.97464 10.8333 4.76268 10.8333 4.54167C10.8333 4.32065 10.7455 4.10869 10.5893 3.95241C10.433 3.79613 10.221 3.70833 10 3.70833H5ZM5 7.04167C4.77899 7.04167 4.56702 7.12946 4.41074 7.28574C4.25446 7.44202 4.16667 7.65399 4.16667 7.875C4.16667 8.09601 4.25446 8.30797 4.41074 8.46426C4.56702 8.62054 4.77899 8.70833 5 8.70833H7.5C7.72101 8.70833 7.93297 8.62054 8.08926 8.46426C8.24554 8.30797 8.33333 8.09601 8.33333 7.875C8.33333 7.65399 8.24554 7.44202 8.08926 7.28574C7.93297 7.12946 7.72101 7.04167 7.5 7.04167H5Z" fill="#42A8FD"/>
</svg>
