<svg width="16" height="14" viewBox="0 0 16 14" fill="none" xmlns="http://www.w3.org/2000/svg">
<path d="M3.74397 13.4909C3.00895 13.491 2.30337 13.202 1.77952 12.6864L1.72174 12.6287C1.45855 12.3718 1.24942 12.0649 1.10668 11.726C0.963941 11.3871 0.890483 11.0231 0.890633 10.6553C0.889703 10.2572 0.967792 9.86285 1.12038 9.49512C1.27296 9.1274 1.497 8.79361 1.77952 8.5131L8.66841 1.69976C9.36835 0.970994 10.3265 0.54632 11.3366 0.517225C12.3466 0.488129 13.3277 0.856939 14.0684 1.54421C14.4025 1.87745 14.6669 2.27386 14.8462 2.71032C15.0255 3.14679 15.1162 3.61458 15.1129 4.08643C15.1089 4.61341 15.0009 5.13442 14.7949 5.61951C14.589 6.1046 14.2892 6.54422 13.9129 6.9131L7.72174 13.0464C7.68326 13.0982 7.63397 13.141 7.57729 13.1718C7.52061 13.2026 7.45791 13.2207 7.39353 13.2248C7.32916 13.2289 7.26466 13.219 7.20451 13.1957C7.14436 13.1724 7.09 13.1363 7.04521 13.0899C7.00042 13.0434 6.96627 12.9878 6.94514 12.9269C6.92401 12.8659 6.9164 12.8011 6.92283 12.7369C6.92927 12.6727 6.9496 12.6107 6.98242 12.5552C7.01523 12.4997 7.05974 12.4519 7.11285 12.4153L13.2862 6.28199C13.5794 5.9958 13.8131 5.65452 13.9741 5.27774C14.135 4.90097 14.2199 4.49612 14.224 4.08643C14.2272 3.73187 14.1597 3.38023 14.0254 3.05209C13.891 2.72394 13.6926 2.42587 13.4417 2.17532C12.8674 1.65215 12.1107 1.37533 11.3344 1.40442C10.5581 1.43351 9.82417 1.76619 9.29063 2.33087L2.42397 9.14421C2.22162 9.3407 2.06042 9.57551 1.94977 9.83495C1.83913 10.0944 1.78125 10.3733 1.77952 10.6553C1.77833 10.903 1.82644 11.1485 1.92106 11.3774C2.01567 11.6063 2.1549 11.8141 2.33063 11.9887L2.38841 12.0464C2.78608 12.4126 3.31164 12.608 3.85194 12.5906C4.39225 12.5731 4.9041 12.3442 5.2773 11.9531L11.2106 6.08643C11.3228 5.97298 11.4113 5.83829 11.4708 5.69024C11.5303 5.54219 11.5597 5.38376 11.5573 5.22421C11.5583 5.08563 11.5317 4.94824 11.479 4.82005C11.4264 4.69186 11.3487 4.57543 11.2506 4.47754C11.0262 4.27172 10.7298 4.16242 10.4255 4.17323C10.1211 4.18404 9.83325 4.3141 9.62397 4.53532L5.53508 8.58865C5.45139 8.67175 5.33811 8.71821 5.22017 8.71779C5.10223 8.71737 4.98929 8.67012 4.90619 8.58643C4.82309 8.50274 4.77664 8.38947 4.77705 8.27153C4.77747 8.15359 4.82472 8.04064 4.90841 7.95754L9.01508 3.89088C9.39151 3.50524 9.90445 3.28305 10.4432 3.27224C10.982 3.26143 11.5035 3.46287 11.8951 3.8331C12.0752 4.01643 12.2167 4.23397 12.3114 4.4729C12.406 4.71182 12.4519 4.96728 12.4462 5.22421C12.4457 5.50088 12.39 5.77468 12.2824 6.02958C12.1748 6.28447 12.0175 6.51534 11.8195 6.70865L5.90397 12.5931C5.33086 13.166 4.5543 13.4888 3.74397 13.4909Z" fill="#868F9A"/>
</svg>
