<svg width="15" height="16" viewBox="0 0 15 16" fill="none" xmlns="http://www.w3.org/2000/svg">
<path d="M15 14.2083V2.54167C15 1.625 14.25 0.875 13.3333 0.875H1.66667C0.75 0.875 0 1.625 0 2.54167V14.2083C0 15.125 0.75 15.875 1.66667 15.875H13.3333C14.25 15.875 15 15.125 15 14.2083ZM4.91667 10.025L6.66667 12.1333L9.25 8.80833C9.41667 8.59167 9.75 8.59167 9.91667 8.81667L12.8417 12.7167C12.8881 12.7786 12.9164 12.8522 12.9233 12.9292C12.9303 13.0063 12.9156 13.0838 12.881 13.153C12.8464 13.2222 12.7932 13.2804 12.7274 13.3211C12.6616 13.3618 12.5857 13.3833 12.5083 13.3833H2.51667C2.16667 13.3833 1.975 12.9833 2.19167 12.7083L4.26667 10.0417C4.425 9.825 4.74167 9.81667 4.91667 10.025Z" fill="#42A8FD"/>
</svg>
