<svg width="15" height="16" viewBox="0 0 15 16" fill="none" xmlns="http://www.w3.org/2000/svg">
<path d="M1.25 15.875C1.25 15.875 0 15.875 0 14.625C0 13.375 1.25 9.625 7.5 9.625C13.75 9.625 15 13.375 15 14.625C15 15.875 13.75 15.875 13.75 15.875H1.25ZM7.5 8.375C8.49456 8.375 9.44839 7.97991 10.1517 7.27665C10.8549 6.57339 11.25 5.61956 11.25 4.625C11.25 3.63044 10.8549 2.67661 10.1517 1.97335C9.44839 1.27009 8.49456 0.875 7.5 0.875C6.50544 0.875 5.55161 1.27009 4.84835 1.97335C4.14509 2.67661 3.75 3.63044 3.75 4.625C3.75 5.61956 4.14509 6.57339 4.84835 7.27665C5.55161 7.97991 6.50544 8.375 7.5 8.375Z" fill="#868F9A"/>
</svg>
