  <svg
      width="32"
      height="32"
      viewBox="0 0 32 32"
      fill="none"
      xmlns="http://www.w3.org/2000/svg"
      className="text-blue-500"
    >
      <path
        fillRule="evenodd"
        clipRule="evenodd"
        d="M16 2C8.268 2 2 8.268 2 16C2 23.732 8.268 30 16 30C23.732 30 30 23.732 30 16C30 8.268 23.732 2 16 2ZM16 26C10.477 26 6 21.523 6 16C6 10.477 10.477 6 16 6C21.523 6 26 10.477 26 16C26 21.523 21.523 26 16 26Z"
        fill="currentColor"
      />
      <path
        d="M16 10C12.686 10 10 12.686 10 16C10 19.314 12.686 22 16 22C19.314 22 22 19.314 22 16C22 12.686 19.314 10 16 10Z"
        fill="currentColor"
      />
      <path
        fillRule="evenodd"
        clipRule="evenodd"
        d="M16 12C13.791 12 12 13.791 12 16C12 18.209 13.791 20 16 20C18.209 20 20 18.209 20 16C20 13.791 18.209 12 16 12ZM16 18C14.895 18 14 17.105 14 16C14 14.895 14.895 14 16 14C17.105 14 18 14.895 18 16C18 17.105 17.105 18 16 18Z"
        fill="white"
      />
    </svg>